<svg width="100" height="100" viewBox="0 0 100 100" fill="none" xmlns="http://www.w3.org/2000/svg">
  <!-- Half ellipses at corners - thinner and longer -->
  <!-- Top-right corner - facing outward (reversed) -->
  <g transform="translate(62, 38) rotate(45)">
    <path
      d="M -12 0 A 12 8 0 0 1 12 0 L 0 0 Z"
      fill="url(#gradientDiamond)"
    />
  </g>
  
  <!-- Bottom-right corner - facing inward (northwest) -->
  <g transform="translate(62, 62) rotate(135)">
    <path
      d="M -12 0 A 12 8 0 0 1 12 0 L 0 0 Z"
      fill="url(#gradientDiamond)"
    />
  </g>
  
  <!-- Bottom-left corner - facing outward (reversed) -->
  <g transform="translate(38, 62) rotate(225)">
    <path
      d="M -12 0 A 12 8 0 0 1 12 0 L 0 0 Z"
      fill="url(#gradientDiamond)"
    />
  </g>
  
  <!-- Top-left corner - facing inward (southeast) -->
  <g transform="translate(38, 38) rotate(315)">
    <path
      d="M -12 0 A 12 8 0 0 1 12 0 L 0 0 Z"
      fill="url(#gradientDiamond)"
    />
  </g>
  
  <!-- Central Diamond Shape - 3D Pyramid -->
  <g>
    <!-- Main diamond with gradient -->
    <path
      d="M 50 30 L 70 50 L 50 70 L 30 50 Z"
      fill="url(#gradientDiamond)"
    />
    
    <!-- 3D Pyramid lines - thinner and more realistic -->
    <!-- Vertical line from top to center -->
    <line x1="50" y1="30" x2="50" y2="50" stroke="#ffffff" stroke-width="0.8" opacity="0.5" />
    <!-- Horizontal line from right to center -->
    <line x1="70" y1="50" x2="50" y2="50" stroke="#ffffff" stroke-width="0.8" opacity="0.5" />
    <!-- Vertical line from bottom to center -->
    <line x1="50" y1="70" x2="50" y2="50" stroke="#ffffff" stroke-width="0.8" opacity="0.4" />
    <!-- Horizontal line from left to center -->
    <line x1="30" y1="50" x2="50" y2="50" stroke="#ffffff" stroke-width="0.8" opacity="0.4" />
    
    <!-- Edge lines for depth perception -->
    <line x1="50" y1="30" x2="70" y2="50" stroke="#000000" stroke-width="0.5" opacity="0.15" />
    <line x1="70" y1="50" x2="50" y2="70" stroke="#000000" stroke-width="0.5" opacity="0.2" />
    <line x1="50" y1="70" x2="30" y2="50" stroke="#000000" stroke-width="0.5" opacity="0.25" />
    <line x1="30" y1="50" x2="50" y2="30" stroke="#000000" stroke-width="0.5" opacity="0.15" />
  </g>
  
  <!-- Gradients -->
  <defs>
    <radialGradient id="gradientCore">
      <stop offset="0%" stop-color="#F59E42" />
      <stop offset="100%" stop-color="#D07E47" />
    </radialGradient>
    
    <linearGradient id="gradientDiamond" x1="0%" y1="0%" x2="100%" y2="100%">
      <stop offset="0%" stop-color="#F59E42" />
      <stop offset="50%" stop-color="#D07E47" />
      <stop offset="100%" stop-color="#B87AA6" />
    </linearGradient>
  </defs>
</svg>
